<mxfile host="app.diagrams.net" agent="Mozilla/5.0 (Windows NT 10.0; Win64; x64) AppleWebKit/537.36 (KHTML, like Gecko) Chrome/131.0.0.0 Safari/537.36" version="26.0.4">
  <diagram name="Page-1" id="03018318-947c-dd8e-b7a3-06fadd420f32">
    <mxGraphModel dx="3354" dy="1258" grid="1" gridSize="10" guides="1" tooltips="1" connect="1" arrows="1" fold="1" page="1" pageScale="1" pageWidth="1100" pageHeight="850" background="none" math="0" shadow="0">
      <root>
        <mxCell id="0" />
        <mxCell id="1" parent="0" />
        <mxCell id="677b7b8949515195-1" value="" style="whiteSpace=wrap;html=1;rounded=0;shadow=0;labelBackgroundColor=none;strokeColor=#000000;strokeWidth=1;fillColor=none;fontFamily=Verdana;fontSize=12;fontColor=#000000;align=center;comic=1;" parent="1" vertex="1">
          <mxGeometry x="20" y="60" width="1060" height="560" as="geometry" />
        </mxCell>
        <mxCell id="LmwmgGfayQPv5SeDVGtm-1" value="Enroll new Student" style="text;strokeColor=none;fillColor=none;html=1;fontSize=24;fontStyle=1;verticalAlign=middle;align=center;" parent="1" vertex="1">
          <mxGeometry x="40" y="90" width="240" height="40" as="geometry" />
        </mxCell>
        <mxCell id="LmwmgGfayQPv5SeDVGtm-3" value="" style="strokeWidth=1;html=1;shadow=0;dashed=0;shape=mxgraph.ios.iTextInput;strokeColor=#444444;buttonText=;fontSize=8;whiteSpace=wrap;align=left;" parent="1" vertex="1">
          <mxGeometry x="60" y="180" width="260" height="40" as="geometry" />
        </mxCell>
        <mxCell id="LmwmgGfayQPv5SeDVGtm-4" value="&lt;font style=&quot;font-size: 16px;&quot;&gt;Alias&lt;/font&gt;" style="text;html=1;align=center;verticalAlign=middle;whiteSpace=wrap;rounded=0;" parent="1" vertex="1">
          <mxGeometry x="80" y="150" width="60" height="30" as="geometry" />
        </mxCell>
        <mxCell id="LmwmgGfayQPv5SeDVGtm-5" value="&lt;span style=&quot;font-size: 16px;&quot;&gt;Last Name&lt;/span&gt;" style="text;html=1;align=center;verticalAlign=middle;whiteSpace=wrap;rounded=0;" parent="1" vertex="1">
          <mxGeometry x="60" y="245" width="130" height="30" as="geometry" />
        </mxCell>
        <mxCell id="LmwmgGfayQPv5SeDVGtm-6" value="" style="strokeWidth=1;html=1;shadow=0;dashed=0;shape=mxgraph.ios.iTextInput;strokeColor=#444444;buttonText=;fontSize=8;whiteSpace=wrap;align=left;" parent="1" vertex="1">
          <mxGeometry x="60" y="275" width="260" height="40" as="geometry" />
        </mxCell>
        <mxCell id="LmwmgGfayQPv5SeDVGtm-7" value="" style="strokeWidth=1;html=1;shadow=0;dashed=0;shape=mxgraph.ios.iTextInput;strokeColor=#444444;buttonText=;fontSize=8;whiteSpace=wrap;align=left;" parent="1" vertex="1">
          <mxGeometry x="60" y="370" width="260" height="40" as="geometry" />
        </mxCell>
        <mxCell id="LmwmgGfayQPv5SeDVGtm-8" value="&lt;span style=&quot;font-size: 16px;&quot;&gt;First Name&lt;/span&gt;" style="text;html=1;align=center;verticalAlign=middle;whiteSpace=wrap;rounded=0;" parent="1" vertex="1">
          <mxGeometry x="60" y="340" width="130" height="30" as="geometry" />
        </mxCell>
        <mxCell id="LmwmgGfayQPv5SeDVGtm-9" value="&lt;span style=&quot;font-size: 16px;&quot;&gt;Date of Birth&lt;/span&gt;" style="text;html=1;align=center;verticalAlign=middle;whiteSpace=wrap;rounded=0;" parent="1" vertex="1">
          <mxGeometry x="60" y="440" width="130" height="30" as="geometry" />
        </mxCell>
        <mxCell id="LmwmgGfayQPv5SeDVGtm-10" value="" style="strokeWidth=1;html=1;shadow=0;dashed=0;shape=mxgraph.ios.iTextInput;strokeColor=#444444;buttonText=;fontSize=8;whiteSpace=wrap;align=left;" parent="1" vertex="1">
          <mxGeometry x="60" y="470" width="260" height="40" as="geometry" />
        </mxCell>
        <mxCell id="LmwmgGfayQPv5SeDVGtm-11" value="" style="html=1;verticalLabelPosition=bottom;align=center;labelBackgroundColor=#ffffff;verticalAlign=top;strokeWidth=2;strokeColor=#0080F0;shadow=0;dashed=0;shape=mxgraph.ios7.icons.calendar;" parent="1" vertex="1">
          <mxGeometry x="280" y="475" width="30" height="30" as="geometry" />
        </mxCell>
        <mxCell id="LmwmgGfayQPv5SeDVGtm-12" value="&lt;font style=&quot;font-size: 16px;&quot;&gt;Save&lt;/font&gt;" style="rounded=1;fillColor=#0057D8;strokeColor=none;html=1;whiteSpace=wrap;fontColor=#ffffff;align=center;verticalAlign=middle;fontStyle=0;fontSize=12;sketch=0;" parent="1" vertex="1">
          <mxGeometry x="60" y="550" width="86" height="33" as="geometry" />
        </mxCell>
        <mxCell id="LmwmgGfayQPv5SeDVGtm-13" value="Go Back" style="html=1;shadow=0;dashed=0;shape=mxgraph.bootstrap.rrect;rSize=5;strokeColor=none;strokeWidth=1;fillColor=none;fontColor=#0085FC;whiteSpace=wrap;align=center;verticalAlign=middle;spacingLeft=0;fontStyle=0;fontSize=16;spacing=5;" parent="1" vertex="1">
          <mxGeometry x="190" y="546.5" width="90" height="40" as="geometry" />
        </mxCell>
        <mxCell id="LmwmgGfayQPv5SeDVGtm-14" value="&lt;font style=&quot;font-size: 18px;&quot;&gt;fourthwallacademy.com/Enroll&lt;/font&gt;" style="html=1;strokeWidth=1;shadow=0;dashed=0;shape=mxgraph.ios7ui.url;fillColor=#e0e0e0;strokeColor=#c0c0c0;buttonText=;strokeColor2=#222222;fontColor=#222222;fontSize=8;spacingTop=2;align=center;whiteSpace=wrap;" parent="1" vertex="1">
          <mxGeometry x="25" y="10" width="1050" height="40" as="geometry" />
        </mxCell>
      </root>
    </mxGraphModel>
  </diagram>
</mxfile>
